<?xml version="1.0" encoding="utf-8"?>
<!-- Generator: Adobe Illustrator 24.2.1, SVG Export Plug-In . SVG Version: 6.00 Build 0)  -->
<svg version="1.1" id="レイヤー_1" xmlns="http://www.w3.org/2000/svg" xmlns:xlink="http://www.w3.org/1999/xlink" x="0px"
	 y="0px" viewBox="0 0 750.1 144.9" style="enable-background:new 0 0 750.1 144.9;" xml:space="preserve">
<style type="text/css">
	.st0{fill:#231815;}
	.st1{fill:#D70C18;}
</style>
<g>
	<g>
		<path class="st0" d="M204.5,126.5c-1.2,0.6-3.8,1.3-7.2,1.3c-8.8,0-14.2-5.5-14.2-14c0-9.1,6.4-14.7,14.9-14.7
			c3.3,0,5.7,0.7,6.7,1.2l-1.1,4c-1.3-0.6-3.1-1.1-5.4-1.1c-5.7,0-9.7,3.5-9.7,10.2c0,6.1,3.6,10,9.7,10c2.1,0,4.2-0.4,5.5-1
			L204.5,126.5z"/>
		<path class="st0" d="M225.9,121.3c0,2.4,0.1,4.4,0.2,6h-4.4l-0.2-3h-0.1c-0.8,1.4-2.8,3.5-6.4,3.5c-3.7,0-7-2.2-7-8.8v-11.8h5.1
			v10.9c0,3.3,1.1,5.5,3.7,5.5c2,0,3.4-1.4,3.9-2.7c0.2-0.4,0.3-1,0.3-1.6v-12.1h5.1V121.3z"/>
		<path class="st0" d="M230.6,122.7c1.1,0.7,3.3,1.5,5.1,1.5c2.2,0,3.2-0.9,3.2-2.3c0-1.4-0.8-2-3.3-2.9c-3.9-1.3-5.6-3.5-5.5-5.9
			c0-3.5,2.9-6.3,7.6-6.3c2.2,0,4.1,0.6,5.3,1.2l-1,3.6c-0.8-0.5-2.5-1.2-4.2-1.2c-1.8,0-2.8,0.9-2.8,2.1c0,1.3,1,1.9,3.5,2.8
			c3.7,1.3,5.3,3.2,5.4,6.1c0,3.7-2.9,6.3-8.2,6.3c-2.4,0-4.6-0.6-6.1-1.4L230.6,122.7z"/>
		<path class="st0" d="M253.2,101.5v5.8h4.8v3.8h-4.8v8.9c0,2.5,0.7,3.7,2.6,3.7c0.9,0,1.5-0.1,2-0.2l0.1,3.9
			c-0.8,0.3-2.1,0.5-3.7,0.5c-1.9,0-3.4-0.6-4.4-1.7c-1.1-1.2-1.6-3-1.6-5.6v-9.4h-2.9v-3.8h2.9v-4.5L253.2,101.5z"/>
		<path class="st0" d="M280.3,117.1c0,7.4-5.2,10.7-10.3,10.7c-5.7,0-10-3.9-10-10.3c0-6.6,4.3-10.6,10.4-10.6
			C276.3,106.8,280.3,111,280.3,117.1z M265.2,117.3c0,3.9,1.9,6.8,5,6.8c2.9,0,4.9-2.8,4.9-6.8c0-3.2-1.4-6.8-4.9-6.8
			C266.6,110.5,265.2,114,265.2,117.3z"/>
		<path class="st0" d="M283.9,113.3c0-2.3-0.1-4.2-0.2-6h4.3l0.2,2.9h0.1c1-1.6,2.8-3.4,6.2-3.4c2.7,0,4.7,1.5,5.6,3.7h0.1
			c0.7-1.1,1.5-1.9,2.5-2.5c1.1-0.8,2.4-1.2,4.1-1.2c3.3,0,6.7,2.3,6.7,8.7v11.8h-5v-11.1c0-3.3-1.2-5.3-3.6-5.3
			c-1.7,0-3,1.2-3.5,2.7c-0.2,0.5-0.3,1.1-0.3,1.7v12h-5v-11.6c0-2.8-1.1-4.8-3.5-4.8c-1.9,0-3.2,1.5-3.7,2.9
			c-0.2,0.5-0.3,1.1-0.3,1.7v11.9h-5V113.3z"/>
		<path class="st0" d="M326,127.4c0.1-1.4,0.2-3.6,0.2-5.6V98.1h5.1v12h0.1c1.2-2,3.4-3.2,6.4-3.2c4.9,0,8.4,4.1,8.4,10.2
			c0,7.2-4.6,10.8-9.1,10.8c-2.6,0-4.9-1-6.3-3.5h-0.1l-0.2,3H326z M331.2,119.1c0,0.4,0,0.8,0.1,1.2c0.5,2.1,2.3,3.6,4.5,3.6
			c3.2,0,5.1-2.5,5.1-6.6c0-3.5-1.7-6.4-5.1-6.4c-2.1,0-4,1.5-4.5,3.7c-0.1,0.4-0.2,0.8-0.2,1.3V119.1z"/>
		<path class="st0" d="M349.7,98.1h5.1v29.3h-5.1V98.1z"/>
		<path class="st0" d="M378.7,117.1c0,7.4-5.2,10.7-10.3,10.7c-5.7,0-10-3.9-10-10.3c0-6.6,4.3-10.6,10.4-10.6
			C374.7,106.8,378.7,111,378.7,117.1z M363.6,117.3c0,3.9,1.9,6.8,5,6.8c2.9,0,4.9-2.8,4.9-6.8c0-3.2-1.4-6.8-4.9-6.8
			C365,110.5,363.6,114,363.6,117.3z"/>
		<path class="st0" d="M397,126.8c-1.1,0.5-3.1,1-5.7,1c-6.3,0-10.4-4-10.4-10.3c0-6,4.1-10.7,11.2-10.7c1.9,0,3.7,0.4,4.9,0.9
			l-0.9,3.8c-0.8-0.4-2-0.8-3.8-0.8c-3.9,0-6.2,2.8-6.1,6.5c0,4.1,2.7,6.5,6.2,6.5c1.7,0,3-0.4,4-0.8L397,126.8z"/>
		<path class="st0" d="M405.3,116.1L405.3,116.1c0.6-0.8,1.1-1.6,1.7-2.4l4.9-6.4h6.1l-7.4,8.2l8.5,11.9h-6.2l-5.8-8.9l-1.7,2v6.8
			h-5.1V98.1h5.1V116.1z"/>
		<path class="st0" d="M428.5,113.7c0-2.7-0.1-4.7-0.2-6.5h4.4l0.2,3.8h0.1c1-2.8,3.3-4.3,5.5-4.3c0.5,0,0.8,0,1.2,0.1v4.8
			c-0.4-0.1-0.9-0.1-1.5-0.1c-2.4,0-4.1,1.5-4.6,3.8c-0.1,0.4-0.1,1-0.1,1.5v10.4h-5.1V113.7z"/>
		<path class="st0" d="M446.1,118.7c0.1,3.6,3,5.2,6.2,5.2c2.3,0,4-0.4,5.5-0.9l0.8,3.5c-1.7,0.7-4.1,1.3-7,1.3
			c-6.5,0-10.3-4-10.3-10.2c0-5.5,3.4-10.8,9.8-10.8c6.5,0,8.7,5.4,8.7,9.8c0,0.9-0.1,1.7-0.2,2.1H446.1z M454.9,115.2
			c0-1.9-0.8-4.9-4.2-4.9c-3.1,0-4.4,2.8-4.7,4.9H454.9z"/>
		<path class="st0" d="M481.5,107.3c-0.1,1.4-0.2,3-0.2,5.8v11.4c0,4.2-0.9,7.2-3,9.1c-2.1,1.9-5,2.4-7.8,2.4c-2.6,0-5.3-0.6-7-1.6
			l1.1-3.9c1.3,0.8,3.4,1.5,5.9,1.5c3.3,0,5.8-1.7,5.8-6.1v-1.7h-0.1c-1.1,1.8-3.2,2.9-5.8,2.9c-5,0-8.5-4.1-8.5-9.8
			c0-6.6,4.3-10.6,9.1-10.6c3.1,0,4.9,1.5,5.8,3.1h0.1l0.2-2.7H481.5z M476.3,115.3c0-0.5,0-1-0.2-1.4c-0.5-1.9-2-3.3-4.1-3.3
			c-2.8,0-4.9,2.5-4.9,6.6c0,3.4,1.7,6.2,4.9,6.2c1.9,0,3.5-1.2,4.1-3.1c0.2-0.5,0.2-1.2,0.2-1.8V115.3z"/>
		<path class="st0" d="M491.6,101.7c0,1.5-1.1,2.7-2.9,2.7c-1.7,0-2.8-1.2-2.8-2.7c0-1.5,1.1-2.7,2.8-2.7
			C490.5,98.9,491.6,100.1,491.6,101.7z M486.2,127.4v-20.1h5.1v20.1H486.2z"/>
		<path class="st0" d="M495.9,122.7c1.1,0.7,3.3,1.5,5.1,1.5c2.2,0,3.2-0.9,3.2-2.3c0-1.4-0.8-2-3.3-2.9c-3.9-1.3-5.6-3.5-5.5-5.9
			c0-3.5,2.9-6.3,7.6-6.3c2.2,0,4.1,0.6,5.3,1.2l-1,3.6c-0.8-0.5-2.5-1.2-4.2-1.2c-1.8,0-2.8,0.9-2.8,2.1c0,1.3,1,1.9,3.5,2.8
			c3.7,1.3,5.3,3.2,5.4,6.1c0,3.7-2.9,6.3-8.2,6.3c-2.4,0-4.6-0.6-6.1-1.4L495.9,122.7z"/>
		<path class="st0" d="M518.5,101.5v5.8h4.8v3.8h-4.8v8.9c0,2.5,0.7,3.7,2.6,3.7c0.9,0,1.5-0.1,2-0.2l0.1,3.9
			c-0.8,0.3-2.1,0.5-3.7,0.5c-1.9,0-3.4-0.6-4.4-1.7c-1.1-1.2-1.6-3-1.6-5.6v-9.4h-2.9v-3.8h2.9v-4.5L518.5,101.5z"/>
		<path class="st0" d="M526.6,113.7c0-2.7-0.1-4.7-0.2-6.5h4.4l0.2,3.8h0.1c1-2.8,3.3-4.3,5.5-4.3c0.5,0,0.8,0,1.2,0.1v4.8
			c-0.4-0.1-0.9-0.1-1.5-0.1c-2.4,0-4.1,1.5-4.6,3.8c-0.1,0.4-0.1,1-0.1,1.5v10.4h-5.1V113.7z"/>
		<path class="st0" d="M551.9,127.4l-0.3-2.2h-0.1c-1.2,1.6-3.3,2.7-5.9,2.7c-4.1,0-6.3-2.9-6.3-6c0-5.1,4.5-7.6,11.9-7.6v-0.3
			c0-1.3-0.5-3.5-4.1-3.5c-2,0-4,0.6-5.4,1.5l-1-3.3c1.5-0.9,4.1-1.8,7.3-1.8c6.4,0,8.3,4.1,8.3,8.5v7.2c0,1.8,0.1,3.6,0.3,4.8
			H551.9z M551.3,117.5c-3.6,0-7,0.7-7,3.8c0,2,1.3,2.9,2.9,2.9c2,0,3.5-1.3,4-2.8c0.1-0.4,0.1-0.8,0.1-1.1V117.5z"/>
		<path class="st0" d="M566.8,101.5v5.8h4.8v3.8h-4.8v8.9c0,2.5,0.7,3.7,2.6,3.7c0.9,0,1.5-0.1,2-0.2l0.1,3.9
			c-0.8,0.3-2.1,0.5-3.7,0.5c-1.9,0-3.4-0.6-4.4-1.7c-1.1-1.2-1.6-3-1.6-5.6v-9.4h-2.9v-3.8h2.9v-4.5L566.8,101.5z"/>
		<path class="st0" d="M580.2,101.7c0,1.5-1.1,2.7-2.9,2.7c-1.7,0-2.8-1.2-2.8-2.7c0-1.5,1.1-2.7,2.8-2.7
			C579.1,98.9,580.2,100.1,580.2,101.7z M574.8,127.4v-20.1h5.1v20.1H574.8z"/>
		<path class="st0" d="M603.8,117.1c0,7.4-5.2,10.7-10.3,10.7c-5.7,0-10-3.9-10-10.3c0-6.6,4.3-10.6,10.4-10.6
			C599.8,106.8,603.8,111,603.8,117.1z M588.7,117.3c0,3.9,1.9,6.8,5,6.8c2.9,0,4.9-2.8,4.9-6.8c0-3.2-1.4-6.8-4.9-6.8
			C590.2,110.5,588.7,114,588.7,117.3z"/>
		<path class="st0" d="M607.4,113.3c0-2.3-0.1-4.2-0.2-6h4.4l0.2,3h0.1c0.9-1.6,3.1-3.5,6.4-3.5c3.5,0,7.1,2.3,7.1,8.6v11.9h-5.1
			V116c0-2.9-1.1-5.1-3.8-5.1c-2,0-3.4,1.4-4,3c-0.2,0.4-0.2,1-0.2,1.6v11.8h-5.1V113.3z"/>
		<path class="st0" d="M638.3,113.9c0-2.6-0.1-4.8-0.2-6.7h4.5l0.2,3.1h0.1c1.5-2.3,3.8-3.5,6.9-3.5c4.6,0,8.4,3.9,8.4,10.2
			c0,7.3-4.6,10.8-9.1,10.8c-2.5,0-4.6-1.1-5.6-2.7h-0.1v10.4h-5.1V113.9z M643.4,119c0,0.5,0,1,0.1,1.4c0.5,2.1,2.3,3.6,4.5,3.6
			c3.2,0,5.1-2.7,5.1-6.6c0-3.6-1.7-6.4-5-6.4c-2.1,0-4,1.5-4.5,3.8c-0.1,0.4-0.2,0.9-0.2,1.3V119z"/>
		<path class="st0" d="M661.8,98.1h5.1v29.3h-5.1V98.1z"/>
		<path class="st0" d="M689.7,121.3c0,2.4,0.1,4.4,0.2,6h-4.4l-0.2-3h-0.1c-0.8,1.4-2.8,3.5-6.4,3.5c-3.7,0-7-2.2-7-8.8v-11.8h5.1
			v10.9c0,3.3,1.1,5.5,3.7,5.5c2,0,3.4-1.4,3.9-2.7c0.2-0.4,0.3-1,0.3-1.6v-12.1h5.1V121.3z"/>
		<path class="st0" d="M713,107.3c-0.1,1.4-0.2,3-0.2,5.8v11.4c0,4.2-0.9,7.2-3,9.1c-2.1,1.9-5,2.4-7.8,2.4c-2.6,0-5.3-0.6-7-1.6
			l1.1-3.9c1.3,0.8,3.4,1.5,5.9,1.5c3.3,0,5.8-1.7,5.8-6.1v-1.7h-0.1c-1.1,1.8-3.2,2.9-5.8,2.9c-5,0-8.5-4.1-8.5-9.8
			c0-6.6,4.3-10.6,9.1-10.6c3.1,0,4.9,1.5,5.8,3.1h0.1l0.2-2.7H713z M707.7,115.3c0-0.5,0-1-0.2-1.4c-0.5-1.9-2-3.3-4.1-3.3
			c-2.8,0-4.9,2.5-4.9,6.6c0,3.4,1.7,6.2,4.9,6.2c1.9,0,3.5-1.2,4.1-3.1c0.2-0.5,0.2-1.2,0.2-1.8V115.3z"/>
		<path class="st0" d="M723,101.7c0,1.5-1.1,2.7-2.9,2.7c-1.7,0-2.8-1.2-2.8-2.7c0-1.5,1.1-2.7,2.8-2.7
			C721.9,98.9,723,100.1,723,101.7z M717.6,127.4v-20.1h5.1v20.1H717.6z"/>
		<path class="st0" d="M727.6,113.3c0-2.3-0.1-4.2-0.2-6h4.4l0.2,3h0.1c0.9-1.6,3.1-3.5,6.4-3.5c3.5,0,7.1,2.3,7.1,8.6v11.9h-5.1
			V116c0-2.9-1.1-5.1-3.8-5.1c-2,0-3.4,1.4-4,3c-0.2,0.4-0.2,1-0.2,1.6v11.8h-5.1V113.3z"/>
	</g>
</g>
<g>
	<g>
		<path class="st0" d="M183.8,23.9c3.5-0.7,9.9-1.3,16.1-1.3c8.1,0,13.2,1.1,17.3,3.8c3.7,2.3,6.2,6.2,6.2,11.4
			c0,5.6-3.5,10.6-10.1,13v0.2c6.4,1.6,12.3,6.7,12.3,15c0,5.4-2.3,9.6-5.8,12.5c-4.3,3.7-11.4,5.6-22.5,5.6
			c-6.1,0-10.7-0.4-13.6-0.8V23.9z M194.7,47.8h5.7c7.7,0,11.9-3.6,11.9-8.7c0-5.7-4.3-8.3-11.3-8.3c-3.3,0-5.1,0.2-6.3,0.5V47.8z
			 M194.7,75.6c1.4,0.3,3.3,0.3,5.9,0.3c7.1,0,13.4-2.7,13.4-10.1c0-7-6.2-9.9-13.8-9.9h-5.5V75.6z"/>
		<path class="st0" d="M235.6,19.9h11.1v63.8h-11.1V19.9z"/>
		<path class="st0" d="M300.6,61.3c0,16.1-11.3,23.3-22.5,23.3c-12.3,0-21.9-8.5-21.9-22.5c0-14.3,9.4-23.2,22.6-23.2
			C291.9,38.9,300.6,48.1,300.6,61.3z M267.7,61.8c0,8.4,4.2,14.8,10.9,14.8c6.3,0,10.7-6.1,10.7-14.9c0-6.9-3-14.7-10.7-14.7
			C270.8,47,267.7,54.5,267.7,61.8z"/>
		<path class="st0" d="M342.3,82.3c-2.3,1.1-6.9,2.3-12.3,2.3c-13.7,0-22.5-8.8-22.5-22.4c0-13.1,8.9-23.3,24.3-23.3
			c4.1,0,8.2,0.9,10.7,2l-2,8.3c-1.8-0.9-4.4-1.7-8.4-1.7c-8.4,0-13.4,6.2-13.4,14.2c0,9,5.9,14.1,13.4,14.1c3.8,0,6.5-0.8,8.7-1.7
			L342.3,82.3z"/>
		<path class="st0" d="M363.8,59.1h0.2c1-1.7,2.3-3.6,3.4-5.1l10.7-14h13.3l-16.2,17.8l18.5,25.9h-13.6l-12.6-19.3l-3.7,4.4v14.9
			h-11.1V19.9h11.1V59.1z"/>
		<path class="st0" d="M421.9,23.9c4-0.7,9.5-1.2,16.9-1.2c8.1,0,14,1.7,17.8,5c3.6,3,5.9,7.7,5.9,13.4c0,5.7-1.8,10.5-5.2,13.7
			c-4.4,4.4-11.3,6.5-19.1,6.5c-2.1,0-3.9-0.1-5.4-0.4v22.8h-11V23.9z M432.9,52.1c1.4,0.4,3.2,0.5,5.4,0.5
			c8.3,0,13.3-4.1,13.3-11.2c0-6.7-4.7-10.3-12.3-10.3c-3,0-5.2,0.3-6.4,0.5V52.1z"/>
		<path class="st0" d="M495,83.6l-0.8-4.9H494c-2.7,3.5-7.2,5.9-12.9,5.9c-8.9,0-13.8-6.3-13.8-13c0-11,9.8-16.6,25.9-16.6v-0.7
			c0-2.9-1.1-7.7-8.9-7.6c-4.3,0-8.8,1.4-11.8,3.3l-2.2-7.2c3.3-2,9-3.9,15.8-3.9c14,0,18,8.8,18,18.4v15.7c0,4,0.2,7.8,0.7,10.5
			H495z M493.5,62.2c-7.8-0.1-15.3,1.5-15.3,8.2c0,4.3,2.8,6.3,6.3,6.3c4.4,0,7.6-2.8,8.7-6.1c0.2-0.8,0.3-1.6,0.3-2.4V62.2z"/>
		<path class="st0" d="M529.1,27.4v12.5h10.5v8.2h-10.5v19.3c0,5.4,1.4,8.1,5.7,8.1c1.9,0,3.3-0.2,4.3-0.5l0.2,8.4
			c-1.7,0.6-4.6,1.1-8,1.1c-4.1,0-7.4-1.4-9.5-3.6c-2.4-2.5-3.5-6.5-3.5-12.3V48.1h-6.2v-8.2h6.2V30L529.1,27.4z"/>
		<path class="st0" d="M562.9,27.4v12.5h10.5v8.2h-10.5v19.3c0,5.4,1.4,8.1,5.7,8.1c1.9,0,3.3-0.2,4.3-0.5l0.2,8.4
			c-1.7,0.6-4.6,1.1-8,1.1c-4.1,0-7.4-1.4-9.5-3.6c-2.4-2.5-3.5-6.5-3.5-12.3V48.1h-6.2v-8.2h6.2V30L562.9,27.4z"/>
		<path class="st0" d="M591.8,64.8c0.3,7.9,6.4,11.4,13.5,11.4c5.1,0,8.7-0.8,12.1-2l1.6,7.6c-3.7,1.6-8.9,2.8-15.3,2.8
			c-14.2,0-22.5-8.8-22.5-22.2c0-12.1,7.3-23.5,21.4-23.5c14.2,0,18.8,11.7,18.8,21.3c0,2.1-0.2,3.7-0.4,4.6H591.8z M611,57.1
			c0-4-1.7-10.7-9.1-10.7c-6.8,0-9.6,6.2-10.1,10.7H611z"/>
		<path class="st0" d="M630.8,54c0-5.9-0.1-10.2-0.4-14.1h9.6l0.4,8.3h0.3c2.2-6.2,7.3-9.3,12-9.3c1.1,0,1.7,0,2.6,0.2v10.4
			c-0.9-0.2-1.9-0.3-3.2-0.3c-5.3,0-8.9,3.4-9.9,8.4c-0.2,1-0.3,2.1-0.3,3.3v22.7h-11.1V54z"/>
		<path class="st0" d="M665,52.9c0-5.1-0.2-9.2-0.4-13h9.7l0.5,6.6h0.3c1.9-3.4,6.7-7.6,13.9-7.6c7.6,0,15.5,4.9,15.5,18.7v26h-11.1
			V59c0-6.3-2.3-11.1-8.3-11.1c-4.4,0-7.4,3.1-8.6,6.5c-0.3,0.9-0.5,2.2-0.5,3.5v25.7H665V52.9z"/>
		<path class="st0" d="M715.9,73.5c2.4,1.5,7.2,3.2,11.2,3.2c4.9,0,7-2,7-4.9c0-3-1.8-4.5-7.2-6.4c-8.6-2.9-12.1-7.6-12.1-12.8
			c0-7.7,6.4-13.7,16.6-13.7c4.8,0,9,1.2,11.6,2.6l-2.2,7.8c-1.8-1-5.4-2.5-9.2-2.5c-3.9,0-6.1,1.9-6.1,4.6c0,2.8,2.1,4.1,7.6,6.1
			c8,2.8,11.6,6.9,11.7,13.3c0,8-6.2,13.7-17.8,13.7c-5.3,0-10.1-1.3-13.3-3.1L715.9,73.5z"/>
	</g>
</g>
<g>
	<path d="M148.4,23.4l-44.5,0.1c-0.6,0-1.2,0.4-1.4,1L99.1,34c-0.3,1,0.4,2,1.4,2l17.3,0c1.3,0,2,1.6,1.1,2.5L91.3,67.2l0.1,0
		l14.2,44.7c0.3,1-0.4,1.9-1.4,1.9l-13.9,0c-0.7,0-1.2-0.4-1.4-1l-7.1-22.9c-0.4-1.4-2.3-1.4-2.8-0.1l-5.8,16.1
		c-0.1,0.3-0.1,0.6,0,0.9l5.3,19.5c0.2,0.6,0.8,1.1,1.4,1.1h44.8c1,0,1.7-1,1.4-1.9L108,69.2c-0.2-0.5,0-1.1,0.4-1.5l41.1-41.8
		C150.4,25,149.7,23.4,148.4,23.4z"/>
	<g>
		<polygon class="st1" points="43.9,65.1 43.9,65.1 43.9,65.1 		"/>
		<path class="st1" d="M95.7,0L68.6,0.1c-0.6,0-1.2,0.4-1.4,1l-3.5,9.5c-0.4,1,0.4,2,1.4,2l11.4,0c1,0,1.7,1,1.4,2L45.6,103
			c-0.5,1.3-2.3,1.3-2.8,0L19.6,39.2c-0.4-1,0.4-2,1.4-2l11.7,0c0.6,0,1.2,0.4,1.4,1l8.4,23c0.5,1.3,2.3,1.3,2.8,0l13-35.8
			c0.4-1-0.4-2-1.4-2l-55.4,0c-1,0-1.7,1-1.4,2l42.6,118.4c0.5,1.3,2.3,1.3,2.8,0L97.1,2C97.4,1,96.7,0,95.7,0z"/>
	</g>
</g>
</svg>
