<?xml version="1.0" encoding="utf-8"?>
<!-- Generator: Adobe Illustrator 23.0.6, SVG Export Plug-In . SVG Version: 6.00 Build 0)  -->
<svg version="1.1" id="レイヤー_1" xmlns="http://www.w3.org/2000/svg" xmlns:xlink="http://www.w3.org/1999/xlink" x="0px"
	 y="0px" viewBox="0 0 256 256" style="enable-background:new 0 0 256 256;" xml:space="preserve">
<style type="text/css">
	.st0{fill-rule:evenodd;clip-rule:evenodd;fill:#DDDDDD;}
	.st1{opacity:0.1;fill:#070001;enable-background:new    ;}
	.st2{fill:#FFFFFF;}
	.st3{opacity:6.000000e-02;fill:#191919;enable-background:new    ;}
	.st4{fill-rule:evenodd;clip-rule:evenodd;fill:#FFFFFF;}
	.st5{fill:#ABAAAA;}
	.st6{fill:#CA191D;}
</style>
<rect class="st0" width="256" height="256"/>
<path class="st1" d="M442.3,565.4l-202.9,0.6l-22.8-21.4v-145l-0.1-45.5v-15.9l0.2,45.5c-0.1-0.4-0.2-46.3-0.2-46.7
	c0-3.1,2.7-5.6,5.9-5.6h175.1l38.9,75.9L442.3,565.4z"/>
<g>
	<path d="M219.4,119.7v115.5H36.6V134h-0.1v-13.3h0.2c-0.1-0.3-0.2-0.7-0.2-1c0-2.6,2.3-4.7,5.2-4.7h172.5
		C217.1,115,219.4,117.1,219.4,119.7z"/>
	<rect x="39.6" y="133.3" class="st2" width="176.9" height="98.8"/>
	<rect x="39.6" y="135.3" class="st3" width="176.9" height="6.7"/>
	<ellipse class="st4" cx="77.3" cy="125.6" rx="3.9" ry="4.2"/>
	<ellipse class="st4" cx="63" cy="125.6" rx="3.9" ry="4.2"/>
	<ellipse class="st4" cx="48.7" cy="125.6" rx="3.9" ry="4.2"/>
	<path class="st3" d="M213.7,24.8H42.1c-3.1,0-5.6,2.5-5.6,5.6v72.3c0,3.1,2.5,5.6,5.6,5.6h75.2l10.6,16.9l10.6-16.9h75.2
		c3.1,0,5.6-2.5,5.6-5.6V30.4C219.2,27.3,216.7,24.8,213.7,24.8z"/>
	<path class="st2" d="M213.7,20.8H42.1c-3.1,0-5.6,2.5-5.6,5.6v72.3c0,3.1,2.5,5.6,5.6,5.6h171.5c3.1,0,5.6-2.5,5.6-5.6V26.4
		C219.2,23.3,216.7,20.8,213.7,20.8z"/>
	<g>
		<g>
			<g>
				<rect x="52" y="86.6" class="st5" width="16.6" height="2.9"/>
				<rect x="52" y="71" class="st5" width="34.2" height="3"/>
				<rect x="52" y="78.8" class="st5" width="34.2" height="3"/>
			</g>
			<g>
				<path class="st6" d="M82.2,58.7C82.2,58.7,82.2,58.7,82.2,58.7L82.2,58.7c0.2-0.3,0.4-0.6,0.6-0.9c0.1-0.1,0.1-0.2,0.1-0.2
					c0.2-0.3,0.3-0.6,0.5-0.9c0.1-0.1,0.1-0.2,0.2-0.3c0.2-0.5,0.5-1,0.6-1.5c0.1-0.2,0.1-0.3,0.2-0.5c0.1-0.2,0.1-0.4,0.2-0.6
					c0.1-0.3,0.1-0.5,0.2-0.8c0-0.2,0.1-0.4,0.1-0.6c0.1-0.3,0.1-0.6,0.1-0.9c0-0.2,0-0.3,0.1-0.5c0-0.5,0.1-1,0.1-1.5
					c0-2.2-0.4-4.3-1.3-6.3c-0.4-1-0.9-1.9-1.5-2.7c-1.2-1.7-2.6-3.2-4.3-4.3c-2.6-1.7-5.7-2.7-9-2.7s-6.4,1-9,2.7
					c-1.7,1.2-3.2,2.6-4.3,4.3c-0.6,0.9-1.1,1.8-1.5,2.7c-0.8,1.9-1.3,4-1.3,6.3c0,0.5,0,1,0.1,1.5c0,0.2,0,0.3,0.1,0.5
					c0,0.3,0.1,0.6,0.1,0.9c0,0.2,0.1,0.4,0.1,0.6c0.1,0.3,0.1,0.5,0.2,0.8c0.1,0.2,0.1,0.4,0.2,0.6c0.1,0.2,0.1,0.4,0.2,0.5
					c0.2,0.5,0.4,1,0.6,1.5c0.1,0.1,0.1,0.2,0.2,0.3c0.2,0.3,0.3,0.6,0.5,0.9c0,0.1,0.1,0.2,0.2,0.2c0.5,0.8,1,1.5,1.7,2.2
					c0.1,0.1,0.2,0.2,0.2,0.3c0.3,0.3,0.6,0.6,0.9,0.9c0.1,0.1,0.2,0.2,0.3,0.3c0.2,0.2,0.4,0.3,0.6,0.5c0.2,0.1,0.4,0.3,0.6,0.4
					c0.2,0.2,0.5,0.3,0.8,0.5c0.2,0.1,0.4,0.3,0.6,0.4c0.2,0.1,0.3,0.2,0.5,0.3c0.3,0.2,0.7,0.3,1.1,0.5c0.1,0.1,0.3,0.1,0.4,0.2
					c0.4,0.2,0.8,0.3,1.2,0.4c0.1,0,0.2,0,0.2,0.1c0.4,0.1,0.8,0.2,1.2,0.3c0.1,0,0.2,0,0.3,0.1c0.4,0.1,0.9,0.2,1.4,0.2
					c0.1,0,0.2,0,0.3,0c0.5,0,1,0.1,1.5,0.1s1,0,1.5-0.1c0.1,0,0.2,0,0.3,0c0.5-0.1,0.9-0.1,1.4-0.2c0.1,0,0.2,0,0.3-0.1
					c0.4-0.1,0.8-0.2,1.2-0.3c0.1,0,0.2,0,0.2-0.1c0.4-0.1,0.8-0.3,1.2-0.4c0.1-0.1,0.3-0.1,0.4-0.2c0.4-0.2,0.7-0.3,1.1-0.5
					c0.2-0.1,0.3-0.2,0.5-0.3c0.2-0.1,0.4-0.3,0.6-0.4c0.3-0.2,0.5-0.3,0.8-0.5c0.2-0.1,0.4-0.3,0.6-0.4c0.2-0.2,0.4-0.3,0.6-0.5
					c0.1-0.1,0.2-0.2,0.3-0.3c0.3-0.3,0.6-0.6,0.9-0.9c0.1-0.1,0.2-0.2,0.2-0.3C81.5,59.6,81.9,59.2,82.2,58.7z"/>
				<g>
					<path class="st2" d="M65.2,50c1.1,0.9,2.5,1.5,4,1.5s2.9-0.6,4-1.5c0.6-0.5,1.1-1.1,1.4-1.7c0.5-0.9,0.8-1.9,0.8-2.9
						c0-3.4-2.7-6.1-6.1-6.1S63,42,63,45.4c0,1.1,0.3,2.1,0.8,2.9C64.1,49,64.6,49.5,65.2,50z"/>
					<path class="st2" d="M69.1,63.6c4.8,0,9-2.4,11.6-6c-0.9-2.7-3.4-5-5.6-6.5c-1.5,1.6-3.6,2.5-6,2.5c-2.3,0-4.5-1-6-2.5
						c-2.2,1.5-4.7,3.8-5.6,6.5C60.1,61.2,64.4,63.6,69.1,63.6z"/>
				</g>
			</g>
		</g>
		<g>
			<g>
				<rect x="110.8" y="86.6" class="st5" width="16.6" height="2.9"/>
				<rect x="110.8" y="71" class="st5" width="34.2" height="3"/>
				<rect x="110.8" y="78.8" class="st5" width="34.2" height="3"/>
			</g>
			<g>
				<path class="st6" d="M141,58.7C141,58.7,141,58.7,141,58.7L141,58.7c0.2-0.3,0.4-0.6,0.6-0.9c0.1-0.1,0.1-0.2,0.1-0.2
					c0.2-0.3,0.3-0.6,0.5-0.9c0.1-0.1,0.1-0.2,0.2-0.3c0.2-0.5,0.5-1,0.6-1.5c0.1-0.2,0.1-0.3,0.2-0.5c0.1-0.2,0.1-0.4,0.2-0.6
					c0.1-0.3,0.1-0.5,0.2-0.8c0-0.2,0.1-0.4,0.1-0.6c0.1-0.3,0.1-0.6,0.1-0.9c0-0.2,0-0.3,0.1-0.5c0-0.5,0.1-1,0.1-1.5
					c0-2.2-0.4-4.3-1.3-6.3c-0.4-1-0.9-1.9-1.5-2.7c-1.2-1.7-2.6-3.2-4.3-4.3c-2.6-1.7-5.7-2.7-9-2.7c-3.3,0-6.4,1-9,2.7
					c-1.7,1.2-3.2,2.6-4.3,4.3c-0.6,0.9-1.1,1.8-1.5,2.7c-0.8,1.9-1.3,4-1.3,6.3c0,0.5,0,1,0.1,1.5c0,0.2,0,0.3,0.1,0.5
					c0,0.3,0.1,0.6,0.1,0.9c0,0.2,0.1,0.4,0.1,0.6c0.1,0.3,0.1,0.5,0.2,0.8c0.1,0.2,0.1,0.4,0.2,0.6c0.1,0.2,0.1,0.4,0.2,0.5
					c0.2,0.5,0.4,1,0.6,1.5c0.1,0.1,0.1,0.2,0.2,0.3c0.2,0.3,0.3,0.6,0.5,0.9c0,0.1,0.1,0.2,0.2,0.2c0.5,0.8,1,1.5,1.7,2.2
					c0.1,0.1,0.2,0.2,0.2,0.3c0.3,0.3,0.6,0.6,0.9,0.9c0.1,0.1,0.2,0.2,0.3,0.3c0.2,0.2,0.4,0.3,0.6,0.5c0.2,0.1,0.4,0.3,0.6,0.4
					c0.2,0.2,0.5,0.3,0.8,0.5c0.2,0.1,0.4,0.3,0.6,0.4c0.2,0.1,0.3,0.2,0.5,0.3c0.3,0.2,0.7,0.3,1.1,0.5c0.1,0.1,0.3,0.1,0.4,0.2
					c0.4,0.2,0.8,0.3,1.2,0.4c0.1,0,0.2,0,0.2,0.1c0.4,0.1,0.8,0.2,1.2,0.3c0.1,0,0.2,0,0.3,0.1c0.4,0.1,0.9,0.2,1.4,0.2
					c0.1,0,0.2,0,0.3,0c0.5,0,1,0.1,1.5,0.1s1,0,1.5-0.1c0.1,0,0.2,0,0.3,0c0.5-0.1,0.9-0.1,1.4-0.2c0.1,0,0.2,0,0.3-0.1
					c0.4-0.1,0.8-0.2,1.2-0.3c0.1,0,0.2,0,0.2-0.1c0.4-0.1,0.8-0.3,1.2-0.4c0.1-0.1,0.3-0.1,0.4-0.2c0.4-0.2,0.7-0.3,1.1-0.5
					c0.2-0.1,0.3-0.2,0.5-0.3c0.2-0.1,0.4-0.3,0.6-0.4c0.3-0.2,0.5-0.3,0.8-0.5c0.2-0.1,0.4-0.3,0.6-0.4c0.2-0.2,0.4-0.3,0.6-0.5
					c0.1-0.1,0.2-0.2,0.3-0.3c0.3-0.3,0.6-0.6,0.9-0.9c0.1-0.1,0.2-0.2,0.2-0.3C140.3,59.6,140.6,59.2,141,58.7z"/>
				<g>
					<path class="st2" d="M123.9,50c1.1,0.9,2.5,1.5,4,1.5s2.9-0.6,4-1.5c0.6-0.5,1.1-1.1,1.4-1.7c0.5-0.9,0.8-1.9,0.8-2.9
						c0-3.4-2.7-6.1-6.1-6.1c-3.4,0-6.1,2.7-6.1,6.1c0,1.1,0.3,2.1,0.8,2.9C122.9,49,123.4,49.5,123.9,50z"/>
					<path class="st2" d="M127.9,63.6c4.8,0,9-2.4,11.6-6c-0.9-2.7-3.4-5-5.6-6.5c-1.5,1.6-3.6,2.5-6,2.5c-2.3,0-4.5-1-6-2.5
						c-2.2,1.5-4.7,3.8-5.6,6.5C118.9,61.2,123.1,63.6,127.9,63.6z"/>
				</g>
			</g>
		</g>
		<g>
			<g>
				<rect x="169.5" y="86.6" class="st5" width="16.6" height="2.9"/>
				<rect x="169.5" y="71" class="st5" width="34.2" height="3"/>
				<rect x="169.5" y="78.8" class="st5" width="34.2" height="3"/>
			</g>
			<g>
				<path class="st6" d="M199.7,58.7C199.7,58.7,199.7,58.7,199.7,58.7L199.7,58.7c0.2-0.3,0.4-0.6,0.6-0.9c0.1-0.1,0.1-0.2,0.1-0.2
					c0.2-0.3,0.3-0.6,0.5-0.9c0.1-0.1,0.1-0.2,0.2-0.3c0.2-0.5,0.5-1,0.6-1.5c0.1-0.2,0.1-0.3,0.2-0.5c0.1-0.2,0.1-0.4,0.2-0.6
					c0.1-0.3,0.1-0.5,0.2-0.8c0-0.2,0.1-0.4,0.1-0.6c0.1-0.3,0.1-0.6,0.1-0.9c0-0.2,0-0.3,0.1-0.5c0-0.5,0.1-1,0.1-1.5
					c0-2.2-0.4-4.3-1.3-6.3c-0.4-1-0.9-1.9-1.5-2.7c-1.2-1.7-2.6-3.2-4.3-4.3c-2.6-1.7-5.7-2.7-9-2.7s-6.4,1-9,2.7
					c-1.7,1.2-3.2,2.6-4.3,4.3c-0.6,0.9-1.1,1.8-1.5,2.7c-0.8,1.9-1.3,4-1.3,6.3c0,0.5,0,1,0.1,1.5c0,0.2,0,0.3,0.1,0.5
					c0,0.3,0.1,0.6,0.1,0.9c0,0.2,0.1,0.4,0.1,0.6c0.1,0.3,0.1,0.5,0.2,0.8c0.1,0.2,0.1,0.4,0.2,0.6c0.1,0.2,0.1,0.4,0.2,0.5
					c0.2,0.5,0.4,1,0.6,1.5c0.1,0.1,0.1,0.2,0.2,0.3c0.2,0.3,0.3,0.6,0.5,0.9c0,0.1,0.1,0.2,0.2,0.2c0.5,0.8,1,1.5,1.7,2.2
					c0.1,0.1,0.2,0.2,0.2,0.3c0.3,0.3,0.6,0.6,0.9,0.9c0.1,0.1,0.2,0.2,0.3,0.3c0.2,0.2,0.4,0.3,0.6,0.5c0.2,0.1,0.4,0.3,0.6,0.4
					c0.2,0.2,0.5,0.3,0.8,0.5c0.2,0.1,0.4,0.3,0.6,0.4c0.2,0.1,0.3,0.2,0.5,0.3c0.3,0.2,0.7,0.3,1.1,0.5c0.1,0.1,0.3,0.1,0.4,0.2
					c0.4,0.2,0.8,0.3,1.2,0.4c0.1,0,0.2,0,0.2,0.1c0.4,0.1,0.8,0.2,1.2,0.3c0.1,0,0.2,0,0.3,0.1c0.4,0.1,0.9,0.2,1.4,0.2
					c0.1,0,0.2,0,0.3,0c0.5,0,1,0.1,1.5,0.1s1,0,1.5-0.1c0.1,0,0.2,0,0.3,0c0.5-0.1,0.9-0.1,1.4-0.2c0.1,0,0.2,0,0.3-0.1
					c0.4-0.1,0.8-0.2,1.2-0.3c0.1,0,0.2,0,0.2-0.1c0.4-0.1,0.8-0.3,1.2-0.4c0.1-0.1,0.3-0.1,0.4-0.2c0.4-0.2,0.7-0.3,1.1-0.5
					c0.2-0.1,0.3-0.2,0.5-0.3c0.2-0.1,0.4-0.3,0.6-0.4c0.3-0.2,0.5-0.3,0.8-0.5c0.2-0.1,0.4-0.3,0.6-0.4c0.2-0.2,0.4-0.3,0.6-0.5
					c0.1-0.1,0.2-0.2,0.3-0.3c0.3-0.3,0.6-0.6,0.9-0.9c0.1-0.1,0.2-0.2,0.2-0.3C199,59.6,199.4,59.2,199.7,58.7z"/>
				<g>
					<path class="st2" d="M182.7,50c1.1,0.9,2.5,1.5,4,1.5c1.5,0,2.9-0.6,4-1.5c0.6-0.5,1.1-1.1,1.4-1.7c0.5-0.9,0.8-1.9,0.8-2.9
						c0-3.4-2.7-6.1-6.1-6.1s-6.1,2.7-6.1,6.1c0,1.1,0.3,2.1,0.8,2.9C181.6,49,182.1,49.5,182.7,50z"/>
					<path class="st2" d="M186.6,63.6c4.8,0,9-2.4,11.6-6c-0.9-2.7-3.4-5-5.6-6.5c-1.5,1.6-3.6,2.5-6,2.5c-2.3,0-4.5-1-6-2.5
						c-2.2,1.5-4.7,3.8-5.6,6.5C177.6,61.2,181.9,63.6,186.6,63.6z"/>
				</g>
			</g>
		</g>
	</g>
	<g>
		<g>
			<g>
				<rect x="52" y="212.6" class="st5" width="16.6" height="2.9"/>
				<rect x="52" y="197" class="st5" width="34.2" height="3"/>
				<rect x="52" y="204.8" class="st5" width="34.2" height="3"/>
			</g>
			<g>
				<path class="st6" d="M82.2,184.7C82.2,184.7,82.2,184.7,82.2,184.7L82.2,184.7c0.2-0.3,0.4-0.6,0.6-0.9c0.1-0.1,0.1-0.2,0.1-0.2
					c0.2-0.3,0.3-0.6,0.5-0.9c0.1-0.1,0.1-0.2,0.2-0.3c0.2-0.5,0.5-1,0.6-1.5c0.1-0.2,0.1-0.3,0.2-0.5c0.1-0.2,0.1-0.4,0.2-0.6
					c0.1-0.3,0.1-0.5,0.2-0.8c0-0.2,0.1-0.4,0.1-0.6c0.1-0.3,0.1-0.6,0.1-0.9c0-0.2,0-0.3,0.1-0.5c0-0.5,0.1-1,0.1-1.5
					c0-2.2-0.4-4.3-1.3-6.3c-0.4-1-0.9-1.9-1.5-2.7c-1.2-1.7-2.6-3.2-4.3-4.3c-2.6-1.7-5.7-2.7-9-2.7s-6.4,1-9,2.7
					c-1.7,1.2-3.2,2.6-4.3,4.3c-0.6,0.9-1.1,1.8-1.5,2.7c-0.8,1.9-1.3,4-1.3,6.3c0,0.5,0,1,0.1,1.5c0,0.2,0,0.3,0.1,0.5
					c0,0.3,0.1,0.6,0.1,0.9c0,0.2,0.1,0.4,0.1,0.6c0.1,0.3,0.1,0.5,0.2,0.8c0.1,0.2,0.1,0.4,0.2,0.6c0.1,0.2,0.1,0.4,0.2,0.5
					c0.2,0.5,0.4,1,0.6,1.5c0.1,0.1,0.1,0.2,0.2,0.3c0.2,0.3,0.3,0.6,0.5,0.9c0,0.1,0.1,0.2,0.2,0.2c0.5,0.8,1,1.5,1.7,2.2
					c0.1,0.1,0.2,0.2,0.2,0.3c0.3,0.3,0.6,0.6,0.9,0.9c0.1,0.1,0.2,0.2,0.3,0.3c0.2,0.2,0.4,0.3,0.6,0.5c0.2,0.1,0.4,0.3,0.6,0.4
					c0.2,0.2,0.5,0.3,0.8,0.5c0.2,0.1,0.4,0.3,0.6,0.4c0.2,0.1,0.3,0.2,0.5,0.3c0.3,0.2,0.7,0.3,1.1,0.5c0.1,0.1,0.3,0.1,0.4,0.2
					c0.4,0.2,0.8,0.3,1.2,0.4c0.1,0,0.2,0,0.2,0.1c0.4,0.1,0.8,0.2,1.2,0.3c0.1,0,0.2,0,0.3,0.1c0.4,0.1,0.9,0.2,1.4,0.2
					c0.1,0,0.2,0,0.3,0c0.5,0,1,0.1,1.5,0.1s1,0,1.5-0.1c0.1,0,0.2,0,0.3,0c0.5-0.1,0.9-0.1,1.4-0.2c0.1,0,0.2,0,0.3-0.1
					c0.4-0.1,0.8-0.2,1.2-0.3c0.1,0,0.2,0,0.2-0.1c0.4-0.1,0.8-0.3,1.2-0.4c0.1-0.1,0.3-0.1,0.4-0.2c0.4-0.2,0.7-0.3,1.1-0.5
					c0.2-0.1,0.3-0.2,0.5-0.3c0.2-0.1,0.4-0.3,0.6-0.4c0.3-0.2,0.5-0.3,0.8-0.5c0.2-0.1,0.4-0.3,0.6-0.4c0.2-0.2,0.4-0.3,0.6-0.5
					c0.1-0.1,0.2-0.2,0.3-0.3c0.3-0.3,0.6-0.6,0.9-0.9c0.1-0.1,0.2-0.2,0.2-0.3C81.5,185.6,81.9,185.2,82.2,184.7z"/>
				<g>
					<path class="st2" d="M65.2,176c1.1,0.9,2.5,1.5,4,1.5s2.9-0.6,4-1.5c0.6-0.5,1.1-1.1,1.4-1.7c0.5-0.9,0.8-1.9,0.8-2.9
						c0-3.4-2.7-6.1-6.1-6.1S63,168,63,171.3c0,1.1,0.3,2.1,0.8,2.9C64.1,175,64.6,175.5,65.2,176z"/>
					<path class="st2" d="M69.1,189.6c4.8,0,9-2.4,11.6-6c-0.9-2.7-3.4-5-5.6-6.5c-1.5,1.6-3.6,2.5-6,2.5c-2.3,0-4.5-1-6-2.5
						c-2.2,1.5-4.7,3.8-5.6,6.5C60.1,187.2,64.4,189.6,69.1,189.6z"/>
				</g>
			</g>
		</g>
		<g>
			<g>
				<rect x="110.8" y="212.6" class="st5" width="16.6" height="2.9"/>
				<rect x="110.8" y="197" class="st5" width="34.2" height="3"/>
				<rect x="110.8" y="204.8" class="st5" width="34.2" height="3"/>
			</g>
			<g>
				<path class="st6" d="M141,184.7C141,184.7,141,184.7,141,184.7L141,184.7c0.2-0.3,0.4-0.6,0.6-0.9c0.1-0.1,0.1-0.2,0.1-0.2
					c0.2-0.3,0.3-0.6,0.5-0.9c0.1-0.1,0.1-0.2,0.2-0.3c0.2-0.5,0.5-1,0.6-1.5c0.1-0.2,0.1-0.3,0.2-0.5c0.1-0.2,0.1-0.4,0.2-0.6
					c0.1-0.3,0.1-0.5,0.2-0.8c0-0.2,0.1-0.4,0.1-0.6c0.1-0.3,0.1-0.6,0.1-0.9c0-0.2,0-0.3,0.1-0.5c0-0.5,0.1-1,0.1-1.5
					c0-2.2-0.4-4.3-1.3-6.3c-0.4-1-0.9-1.9-1.5-2.7c-1.2-1.7-2.6-3.2-4.3-4.3c-2.6-1.7-5.7-2.7-9-2.7c-3.3,0-6.4,1-9,2.7
					c-1.7,1.2-3.2,2.6-4.3,4.3c-0.6,0.9-1.1,1.8-1.5,2.7c-0.8,1.9-1.3,4-1.3,6.3c0,0.5,0,1,0.1,1.5c0,0.2,0,0.3,0.1,0.5
					c0,0.3,0.1,0.6,0.1,0.9c0,0.2,0.1,0.4,0.1,0.6c0.1,0.3,0.1,0.5,0.2,0.8c0.1,0.2,0.1,0.4,0.2,0.6c0.1,0.2,0.1,0.4,0.2,0.5
					c0.2,0.5,0.4,1,0.6,1.5c0.1,0.1,0.1,0.2,0.2,0.3c0.2,0.3,0.3,0.6,0.5,0.9c0,0.1,0.1,0.2,0.2,0.2c0.5,0.8,1,1.5,1.7,2.2
					c0.1,0.1,0.2,0.2,0.2,0.3c0.3,0.3,0.6,0.6,0.9,0.9c0.1,0.1,0.2,0.2,0.3,0.3c0.2,0.2,0.4,0.3,0.6,0.5c0.2,0.1,0.4,0.3,0.6,0.4
					c0.2,0.2,0.5,0.3,0.8,0.5c0.2,0.1,0.4,0.3,0.6,0.4c0.2,0.1,0.3,0.2,0.5,0.3c0.3,0.2,0.7,0.3,1.1,0.5c0.1,0.1,0.3,0.1,0.4,0.2
					c0.4,0.2,0.8,0.3,1.2,0.4c0.1,0,0.2,0,0.2,0.1c0.4,0.1,0.8,0.2,1.2,0.3c0.1,0,0.2,0,0.3,0.1c0.4,0.1,0.9,0.2,1.4,0.2
					c0.1,0,0.2,0,0.3,0c0.5,0,1,0.1,1.5,0.1s1,0,1.5-0.1c0.1,0,0.2,0,0.3,0c0.5-0.1,0.9-0.1,1.4-0.2c0.1,0,0.2,0,0.3-0.1
					c0.4-0.1,0.8-0.2,1.2-0.3c0.1,0,0.2,0,0.2-0.1c0.4-0.1,0.8-0.3,1.2-0.4c0.1-0.1,0.3-0.1,0.4-0.2c0.4-0.2,0.7-0.3,1.1-0.5
					c0.2-0.1,0.3-0.2,0.5-0.3c0.2-0.1,0.4-0.3,0.6-0.4c0.3-0.2,0.5-0.3,0.8-0.5c0.2-0.1,0.4-0.3,0.6-0.4c0.2-0.2,0.4-0.3,0.6-0.5
					c0.1-0.1,0.2-0.2,0.3-0.3c0.3-0.3,0.6-0.6,0.9-0.9c0.1-0.1,0.2-0.2,0.2-0.3C140.3,185.6,140.6,185.2,141,184.7z"/>
				<g>
					<path class="st2" d="M123.9,176c1.1,0.9,2.5,1.5,4,1.5s2.9-0.6,4-1.5c0.6-0.5,1.1-1.1,1.4-1.7c0.5-0.9,0.8-1.9,0.8-2.9
						c0-3.4-2.7-6.1-6.1-6.1c-3.4,0-6.1,2.7-6.1,6.1c0,1.1,0.3,2.1,0.8,2.9C122.9,175,123.4,175.5,123.9,176z"/>
					<path class="st2" d="M127.9,189.6c4.8,0,9-2.4,11.6-6c-0.9-2.7-3.4-5-5.6-6.5c-1.5,1.6-3.6,2.5-6,2.5c-2.3,0-4.5-1-6-2.5
						c-2.2,1.5-4.7,3.8-5.6,6.5C118.9,187.2,123.1,189.6,127.9,189.6z"/>
				</g>
			</g>
		</g>
		<g>
			<g>
				<rect x="169.5" y="212.6" class="st5" width="16.6" height="2.9"/>
				<rect x="169.5" y="197" class="st5" width="34.2" height="3"/>
				<rect x="169.5" y="204.8" class="st5" width="34.2" height="3"/>
			</g>
			<g>
				<path class="st6" d="M199.7,184.7C199.7,184.7,199.7,184.7,199.7,184.7L199.7,184.7c0.2-0.3,0.4-0.6,0.6-0.9
					c0.1-0.1,0.1-0.2,0.1-0.2c0.2-0.3,0.3-0.6,0.5-0.9c0.1-0.1,0.1-0.2,0.2-0.3c0.2-0.5,0.5-1,0.6-1.5c0.1-0.2,0.1-0.3,0.2-0.5
					c0.1-0.2,0.1-0.4,0.2-0.6c0.1-0.3,0.1-0.5,0.2-0.8c0-0.2,0.1-0.4,0.1-0.6c0.1-0.3,0.1-0.6,0.1-0.9c0-0.2,0-0.3,0.1-0.5
					c0-0.5,0.1-1,0.1-1.5c0-2.2-0.4-4.3-1.3-6.3c-0.4-1-0.9-1.9-1.5-2.7c-1.2-1.7-2.6-3.2-4.3-4.3c-2.6-1.7-5.7-2.7-9-2.7
					s-6.4,1-9,2.7c-1.7,1.2-3.2,2.6-4.3,4.3c-0.6,0.9-1.1,1.8-1.5,2.7c-0.8,1.9-1.3,4-1.3,6.3c0,0.5,0,1,0.1,1.5
					c0,0.2,0,0.3,0.1,0.5c0,0.3,0.1,0.6,0.1,0.9c0,0.2,0.1,0.4,0.1,0.6c0.1,0.3,0.1,0.5,0.2,0.8c0.1,0.2,0.1,0.4,0.2,0.6
					c0.1,0.2,0.1,0.4,0.2,0.5c0.2,0.5,0.4,1,0.6,1.5c0.1,0.1,0.1,0.2,0.2,0.3c0.2,0.3,0.3,0.6,0.5,0.9c0,0.1,0.1,0.2,0.2,0.2
					c0.5,0.8,1,1.5,1.7,2.2c0.1,0.1,0.2,0.2,0.2,0.3c0.3,0.3,0.6,0.6,0.9,0.9c0.1,0.1,0.2,0.2,0.3,0.3c0.2,0.2,0.4,0.3,0.6,0.5
					c0.2,0.1,0.4,0.3,0.6,0.4c0.2,0.2,0.5,0.3,0.8,0.5c0.2,0.1,0.4,0.3,0.6,0.4c0.2,0.1,0.3,0.2,0.5,0.3c0.3,0.2,0.7,0.3,1.1,0.5
					c0.1,0.1,0.3,0.1,0.4,0.2c0.4,0.2,0.8,0.3,1.2,0.4c0.1,0,0.2,0,0.2,0.1c0.4,0.1,0.8,0.2,1.2,0.3c0.1,0,0.2,0,0.3,0.1
					c0.4,0.1,0.9,0.2,1.4,0.2c0.1,0,0.2,0,0.3,0c0.5,0,1,0.1,1.5,0.1s1,0,1.5-0.1c0.1,0,0.2,0,0.3,0c0.5-0.1,0.9-0.1,1.4-0.2
					c0.1,0,0.2,0,0.3-0.1c0.4-0.1,0.8-0.2,1.2-0.3c0.1,0,0.2,0,0.2-0.1c0.4-0.1,0.8-0.3,1.2-0.4c0.1-0.1,0.3-0.1,0.4-0.2
					c0.4-0.2,0.7-0.3,1.1-0.5c0.2-0.1,0.3-0.2,0.5-0.3c0.2-0.1,0.4-0.3,0.6-0.4c0.3-0.2,0.5-0.3,0.8-0.5c0.2-0.1,0.4-0.3,0.6-0.4
					c0.2-0.2,0.4-0.3,0.6-0.5c0.1-0.1,0.2-0.2,0.3-0.3c0.3-0.3,0.6-0.6,0.9-0.9c0.1-0.1,0.2-0.2,0.2-0.3
					C199,185.6,199.4,185.2,199.7,184.7z"/>
				<g>
					<path class="st2" d="M182.7,176c1.1,0.9,2.5,1.5,4,1.5c1.5,0,2.9-0.6,4-1.5c0.6-0.5,1.1-1.1,1.4-1.7c0.5-0.9,0.8-1.9,0.8-2.9
						c0-3.4-2.7-6.1-6.1-6.1s-6.1,2.7-6.1,6.1c0,1.1,0.3,2.1,0.8,2.9C181.6,175,182.1,175.5,182.7,176z"/>
					<path class="st2" d="M186.6,189.6c4.8,0,9-2.4,11.6-6c-0.9-2.7-3.4-5-5.6-6.5c-1.5,1.6-3.6,2.5-6,2.5c-2.3,0-4.5-1-6-2.5
						c-2.2,1.5-4.7,3.8-5.6,6.5C177.6,187.2,181.9,189.6,186.6,189.6z"/>
				</g>
			</g>
		</g>
	</g>
	<polygon class="st2" points="127.9,119.1 138.1,101.4 117.7,101.4 	"/>
</g>
</svg>
